<svg width="30" height="30" viewBox="0 0 30 30" fill="none" xmlns="http://www.w3.org/2000/svg">
<path d="M22.9022 3.648L20.0689 2.073C17.5812 0.6915 16.3374 0 15 0C13.6627 0 12.4189 0.69 9.93121 2.073L9.47646 2.3265L22.1174 9.975L27.8067 6.96C26.8915 5.862 25.4154 5.0415 22.9022 3.645M28.8097 8.946L23.1459 11.946V16.5C23.1459 16.7984 23.0339 17.0845 22.8347 17.2955C22.6354 17.5065 22.3652 17.625 22.0834 17.625C21.8016 17.625 21.5313 17.5065 21.3321 17.2955C21.1328 17.0845 21.0209 16.7984 21.0209 16.5V13.071L16.0625 15.696V29.856C17.0797 29.5875 18.2371 28.9455 20.0689 27.927L22.9022 26.352C25.9495 24.6585 27.4738 23.8125 28.321 22.29C29.1667 20.769 29.1667 18.8745 29.1667 15.09V14.9145C29.1667 12.075 29.1667 10.299 28.8097 8.946ZM13.9375 29.856V15.696L1.19037 8.946C0.833374 10.299 0.833374 12.075 0.833374 14.9115V15.087C0.833374 18.8745 0.833374 20.769 1.67912 22.29C2.52629 23.8125 4.05062 24.66 7.09787 26.3535L9.93121 27.927C11.763 28.9455 12.9204 29.5875 13.9375 29.856ZM2.19337 6.9615L15 13.7415L19.8323 11.184L7.24379 3.567L7.09787 3.648C4.58612 5.043 3.10854 5.8635 2.19337 6.963" fill="#252C3E"/>
</svg>
