<svg width="15" height="15" viewBox="0 0 15 15" fill="none" xmlns="http://www.w3.org/2000/svg">
<path d="M7.49996 0.416668C11.4121 0.416668 14.5833 3.58788 14.5833 7.5C14.5833 11.4121 11.4121 14.5833 7.49996 14.5833C3.58783 14.5833 0.416626 11.4121 0.416626 7.5C0.416626 3.58788 3.58783 0.416668 7.49996 0.416668ZM7.49996 3.25C7.3121 3.25 7.13193 3.32463 6.99909 3.45747C6.86625 3.59031 6.79163 3.77047 6.79163 3.95833V7.5C6.79167 7.68785 6.86632 7.86799 6.99917 8.00079L9.12417 10.1258C9.25776 10.2548 9.43669 10.3262 9.62241 10.3246C9.80813 10.323 9.98579 10.2485 10.1171 10.1172C10.2485 9.98583 10.3229 9.80818 10.3246 9.62245C10.3262 9.43673 10.2548 9.2578 10.1258 9.12421L8.20829 7.20675V3.95833C8.20829 3.77047 8.13367 3.59031 8.00083 3.45747C7.86799 3.32463 7.68782 3.25 7.49996 3.25Z" fill="#636363"/>
</svg>
